# xmcd CD database file
#
# Track frame offsets:
#	150
#	19807
#	33532
#	49057
#	66232
#	83707
#	103432
#	119632
#	144232
#	174607
#	189832
#
# Disc length: 2766 seconds
#
# Revision: 0
# Processed by: cddbd v1.5.2PL0 Copyright (c) Steve Scherf et al.
# Submitted via: CDex 1.70beta2
#
DISCID=990acc0b
DTITLE=Rich Berry - Elixer for the Soul
DYEAR=1900
DGENRE=Blues
TTITLE0=Elixer for the Soul
TTITLE1=One way Love
TTITLE2=Tomorrows Another Day
TTITLE3=What Got Think'in That Way
TTITLE4=Cry For Me(Revisited)
TTITLE5=That's How It Goes Sometimes
TTITLE6=Fells Like The Blues
TTITLE7=When You Comin' Home
TTITLE8=Coursin' Thru My Viens
TTITLE9=(I've Been Hurt By) Better Women Than You
TTITLE10=Pleasure And Pain
EXTD=
EXTT0=
EXTT1=
EXTT2=
EXTT3=
EXTT4=
EXTT5=
EXTT6=
EXTT7=
EXTT8=
EXTT9=
EXTT10=
PLAYORDER=
